<mxfile host="app.diagrams.net" modified="2023-11-02T01:52:29.905Z" agent="Mozilla/5.0 (Windows NT 10.0; Win64; x64; rv:109.0) Gecko/20100101 Firefox/118.0" etag="Unn413M2bcriWYLcyk38" version="22.0.8" type="github">
  <diagram id="C5RBs43oDa-KdzZeNtuy" name="Page-1">
    <mxGraphModel dx="880" dy="470" grid="1" gridSize="10" guides="1" tooltips="1" connect="1" arrows="1" fold="1" page="1" pageScale="1" pageWidth="827" pageHeight="1169" math="0" shadow="0">
      <root>
        <mxCell id="WIyWlLk6GJQsqaUBKTNV-0" />
        <mxCell id="WIyWlLk6GJQsqaUBKTNV-1" parent="WIyWlLk6GJQsqaUBKTNV-0" />
        <mxCell id="5SDsuT6tsbrxQBoLu0xR-5" value="" style="edgeStyle=orthogonalEdgeStyle;rounded=0;orthogonalLoop=1;jettySize=auto;html=1;fontStyle=1" edge="1" parent="WIyWlLk6GJQsqaUBKTNV-1" source="5SDsuT6tsbrxQBoLu0xR-3" target="5SDsuT6tsbrxQBoLu0xR-4">
          <mxGeometry relative="1" as="geometry" />
        </mxCell>
        <mxCell id="5SDsuT6tsbrxQBoLu0xR-3" value="Main" style="rounded=1;whiteSpace=wrap;html=1;arcSize=50;fontStyle=1" vertex="1" parent="WIyWlLk6GJQsqaUBKTNV-1">
          <mxGeometry x="350" y="70" width="110" height="40" as="geometry" />
        </mxCell>
        <mxCell id="5SDsuT6tsbrxQBoLu0xR-8" value="" style="edgeStyle=orthogonalEdgeStyle;rounded=0;orthogonalLoop=1;jettySize=auto;html=1;fontStyle=1" edge="1" parent="WIyWlLk6GJQsqaUBKTNV-1" source="5SDsuT6tsbrxQBoLu0xR-4" target="5SDsuT6tsbrxQBoLu0xR-7">
          <mxGeometry relative="1" as="geometry" />
        </mxCell>
        <mxCell id="5SDsuT6tsbrxQBoLu0xR-4" value="Integer bilangan" style="shape=internalStorage;whiteSpace=wrap;html=1;backgroundOutline=1;dx=10;dy=10;fontStyle=1" vertex="1" parent="WIyWlLk6GJQsqaUBKTNV-1">
          <mxGeometry x="345" y="130" width="120" height="50" as="geometry" />
        </mxCell>
        <mxCell id="5SDsuT6tsbrxQBoLu0xR-10" value="" style="edgeStyle=orthogonalEdgeStyle;rounded=0;orthogonalLoop=1;jettySize=auto;html=1;fontStyle=1" edge="1" parent="WIyWlLk6GJQsqaUBKTNV-1" source="5SDsuT6tsbrxQBoLu0xR-7" target="5SDsuT6tsbrxQBoLu0xR-9">
          <mxGeometry relative="1" as="geometry" />
        </mxCell>
        <mxCell id="5SDsuT6tsbrxQBoLu0xR-7" value="Input bilangan" style="shape=parallelogram;perimeter=parallelogramPerimeter;whiteSpace=wrap;html=1;fixedSize=1;fontStyle=1" vertex="1" parent="WIyWlLk6GJQsqaUBKTNV-1">
          <mxGeometry x="322.5" y="200" width="165" height="30" as="geometry" />
        </mxCell>
        <mxCell id="5SDsuT6tsbrxQBoLu0xR-11" value="&lt;span&gt;True&lt;/span&gt;" style="edgeStyle=orthogonalEdgeStyle;rounded=0;orthogonalLoop=1;jettySize=auto;html=1;fontStyle=1" edge="1" parent="WIyWlLk6GJQsqaUBKTNV-1" source="5SDsuT6tsbrxQBoLu0xR-9" target="5SDsuT6tsbrxQBoLu0xR-16">
          <mxGeometry x="-0.3934" y="10" relative="1" as="geometry">
            <mxPoint x="560" y="390" as="targetPoint" />
            <Array as="points">
              <mxPoint x="560" y="300" />
            </Array>
            <mxPoint as="offset" />
          </mxGeometry>
        </mxCell>
        <mxCell id="5SDsuT6tsbrxQBoLu0xR-9" value="bilangan mod 2 = 0" style="rhombus;whiteSpace=wrap;html=1;fontStyle=1" vertex="1" parent="WIyWlLk6GJQsqaUBKTNV-1">
          <mxGeometry x="303.75" y="260" width="202.5" height="80" as="geometry" />
        </mxCell>
        <mxCell id="5SDsuT6tsbrxQBoLu0xR-12" value="&lt;span&gt;False&lt;/span&gt;" style="edgeStyle=orthogonalEdgeStyle;rounded=0;orthogonalLoop=1;jettySize=auto;html=1;fontStyle=1" edge="1" parent="WIyWlLk6GJQsqaUBKTNV-1">
          <mxGeometry x="-0.4125" y="-10" relative="1" as="geometry">
            <mxPoint x="249.45" y="360" as="targetPoint" />
            <mxPoint x="303.2" y="300" as="sourcePoint" />
            <mxPoint as="offset" />
          </mxGeometry>
        </mxCell>
        <mxCell id="5SDsuT6tsbrxQBoLu0xR-15" value="&lt;div&gt;Output bilangan &amp;amp; &quot; adalah&lt;/div&gt;&lt;div&gt;bilangan ganjil&quot;&lt;br&gt;&lt;/div&gt;" style="shape=parallelogram;perimeter=parallelogramPerimeter;whiteSpace=wrap;html=1;fixedSize=1;fontStyle=1" vertex="1" parent="WIyWlLk6GJQsqaUBKTNV-1">
          <mxGeometry x="140" y="360" width="210" height="40" as="geometry" />
        </mxCell>
        <mxCell id="5SDsuT6tsbrxQBoLu0xR-17" style="edgeStyle=elbowEdgeStyle;rounded=0;orthogonalLoop=1;jettySize=auto;html=1;elbow=vertical;entryX=1;entryY=0.5;entryDx=0;entryDy=0;exitX=0.5;exitY=1;exitDx=0;exitDy=0;fontStyle=1" edge="1" parent="WIyWlLk6GJQsqaUBKTNV-1" source="5SDsuT6tsbrxQBoLu0xR-16" target="5SDsuT6tsbrxQBoLu0xR-19">
          <mxGeometry relative="1" as="geometry">
            <mxPoint x="430" y="436.99" as="targetPoint" />
            <mxPoint x="567" y="400" as="sourcePoint" />
            <Array as="points">
              <mxPoint x="510" y="445" />
              <mxPoint x="480" y="445" />
              <mxPoint x="567" y="440" />
            </Array>
          </mxGeometry>
        </mxCell>
        <mxCell id="5SDsuT6tsbrxQBoLu0xR-16" value="&lt;div&gt;Output bilangan &amp;amp; &quot; adalah &lt;br&gt;&lt;/div&gt;&lt;div&gt;bilangan genap&lt;br&gt;&lt;/div&gt;" style="shape=parallelogram;perimeter=parallelogramPerimeter;whiteSpace=wrap;html=1;fixedSize=1;fontStyle=1" vertex="1" parent="WIyWlLk6GJQsqaUBKTNV-1">
          <mxGeometry x="460" y="360" width="200" height="40" as="geometry" />
        </mxCell>
        <mxCell id="5SDsuT6tsbrxQBoLu0xR-20" value="" style="edgeStyle=elbowEdgeStyle;rounded=0;orthogonalLoop=1;jettySize=auto;html=1;elbow=vertical;fontStyle=1" edge="1" parent="WIyWlLk6GJQsqaUBKTNV-1" source="5SDsuT6tsbrxQBoLu0xR-15" target="5SDsuT6tsbrxQBoLu0xR-19">
          <mxGeometry relative="1" as="geometry">
            <mxPoint x="400" y="480" as="targetPoint" />
            <mxPoint x="245" y="400" as="sourcePoint" />
            <Array as="points">
              <mxPoint x="240" y="445" />
            </Array>
          </mxGeometry>
        </mxCell>
        <mxCell id="5SDsuT6tsbrxQBoLu0xR-24" value="" style="edgeStyle=orthogonalEdgeStyle;rounded=0;orthogonalLoop=1;jettySize=auto;html=1;fontStyle=1" edge="1" parent="WIyWlLk6GJQsqaUBKTNV-1" source="5SDsuT6tsbrxQBoLu0xR-19" target="5SDsuT6tsbrxQBoLu0xR-23">
          <mxGeometry relative="1" as="geometry" />
        </mxCell>
        <mxCell id="5SDsuT6tsbrxQBoLu0xR-19" value="" style="ellipse;whiteSpace=wrap;html=1;aspect=fixed;fontStyle=1" vertex="1" parent="WIyWlLk6GJQsqaUBKTNV-1">
          <mxGeometry x="390" y="430" width="30" height="30" as="geometry" />
        </mxCell>
        <mxCell id="5SDsuT6tsbrxQBoLu0xR-23" value="End" style="rounded=1;whiteSpace=wrap;html=1;arcSize=50;fontStyle=1" vertex="1" parent="WIyWlLk6GJQsqaUBKTNV-1">
          <mxGeometry x="353.75" y="490" width="102.5" height="40" as="geometry" />
        </mxCell>
      </root>
    </mxGraphModel>
  </diagram>
</mxfile>
